<svg width="101" height="60" viewBox="0 0 101 60" fill="none" xmlns="http://www.w3.org/2000/svg"><path d="M40.592 54v-.66h2.806v3a4.25 4.25 0 0 1-3.104 1.14c-3.402 0-4.417-2.64-4.417-4.56s1.014-4.62 4.417-4.62c1.075 0 2.089.36 2.925 1.08l-.418.481c-.716-.6-1.552-.9-2.447-.9-3.104 0-3.581 2.88-3.581 3.9s.477 3.84 3.58 3.84q1.255 0 2.33-.72v-2.1h-2.09v.12m7.879-2.341c-.12 0-.298-.06-.418-.06-.776 0-1.552.42-2.029 1.08v4.74h-.776V51h.418l.18.96c.596-.66 1.372-1.02 2.268-1.02.18 0 .358 0 .537.06zm6.682 2.52c0-.72-.299-2.7-2.388-2.7s-2.387 1.98-2.387 2.7.298 2.7 2.387 2.7 2.388-1.98 2.388-2.7m.776 0c0 1.38-.717 3.3-3.164 3.3s-3.163-1.92-3.163-3.3.716-3.3 3.163-3.3 3.164 1.98 3.164 3.3M62.201 51h.776v6.42h-.418l-.18-.96c-.596.66-1.372 1.02-2.268 1.02-2.328 0-2.626-1.68-2.626-3.18V51h.836v3.3c0 .78-.06 2.52 1.91 2.52.776-.06 1.552-.42 2.03-1.08V51zm3.641 1.56v3.6c.537.42 1.194.66 1.91.66 2.09 0 2.507-1.86 2.507-2.7 0-.72-.298-2.58-2.387-2.58-.836.06-1.552.42-2.03 1.02m0 4.38V60h-.835v-9h.418l.18.9c.537-.66 1.372-1.02 2.268-1.02 2.328 0 3.103 1.921 3.103 3.3 0 1.38-.716 3.3-3.163 3.3q-1.074 0-1.97-.54m-48.59-1.08h-1.79v-2.22h1.79c.596 0 1.074.48 1.074 1.08s-.478 1.14-1.074 1.14m-1.79-5.88h1.73a1.02 1.02 0 0 1 1.134.901c.06.54-.358 1.08-.895 1.14h-1.97zm3.52 2.82c.657-.36 1.135-1.08 1.075-1.86 0-1.56-1.014-2.52-2.745-2.52H13.73v9h3.761c1.612 0 2.746-.9 2.746-2.58 0-.9-.478-1.68-1.254-2.04m5.013-4.381h-1.612v6.6h1.612zm.059 7.68h-1.671v1.32h1.67zm6.749-1.38-.656-.66-.955.9.776.781c-.18.12-.358.18-.596.18a1.63 1.63 0 0 1-1.135-.48c-.358-.36-.418-.78-.418-2.52s.12-2.16.418-2.52c.299-.3.717-.48 1.135-.48s.835.18 1.134.48c.358.36.418.78.418 2.52.12.6.06 1.2-.12 1.8m1.373 1.38c.537-.84.537-1.86.537-3.18 0-1.56 0-2.7-.895-3.6a3.447 3.447 0 0 0-4.835 0c-.896.9-.896 2.04-.896 3.6s0 2.7.896 3.6c1.134 1.08 2.865 1.32 4.237.48l.776.78.896-.9z" fill="#fff"/><path d="M101 0H0v41.385h101z" fill="#FC0"/><path d="M19.162 21.78h-2.745v3.36h2.745c.896.06 1.731-.66 1.791-1.56s-.656-1.74-1.552-1.8zm-.238-5.52h-2.567v3.12h2.567c1.134 0 1.73-.6 1.73-1.56s-.537-1.56-1.73-1.56m.478 11.219h-5.67v-13.56h5.431c2.627 0 4.179 1.5 4.179 3.84 0 1.2-.657 2.28-1.671 2.82 1.194.54 1.91 1.74 1.85 3.06 0 2.46-1.73 3.84-4.119 3.84m14.98-10.619c-.418-.48-1.074-.72-1.67-.72-.657 0-1.255.24-1.732.72-.537.6-.656 1.2-.656 3.84 0 2.641.12 3.24.656 3.841.418.48 1.075.72 1.731.72s1.254-.24 1.671-.72c.538-.6.657-1.2.657-3.84s-.12-3.24-.657-3.84m1.97 9.24a4.68 4.68 0 0 1-3.64 1.5 4.68 4.68 0 0 1-3.642-1.5c-1.373-1.38-1.313-3.06-1.313-5.4 0-2.339-.06-4.08 1.313-5.399a4.68 4.68 0 0 1 3.641-1.5 4.68 4.68 0 0 1 3.641 1.5c1.373 1.38 1.373 3.06 1.373 5.4s0 4.08-1.373 5.4M48.53 16.86c-.419-.48-1.075-.72-1.672-.72a2.38 2.38 0 0 0-1.73.72c-.538.6-.657 1.2-.657 3.84s.12 3.24.656 3.84c.418.481 1.075.72 1.731.72s1.254-.239 1.671-.72c.538-.599.657-1.2.657-3.84s-.12-3.24-.657-3.84m1.97 9.24a5.206 5.206 0 0 1-7.283 0c-1.373-1.38-1.313-3.06-1.313-5.4s-.06-4.08 1.313-5.4a5.206 5.206 0 0 1 7.282 0c1.373 1.38 1.373 3.06 1.373 5.4s-.06 4.08-1.373 5.4m10.746-9.84v11.22h-2.686V16.26h-3.521v-2.34h9.729v2.34zm22.386.66c-.418-.48-1.074-.72-1.67-.72-.657 0-1.255.24-1.732.72-.537.6-.656 1.2-.656 3.841s.12 3.24.656 3.84c.418.48 1.075.72 1.731.72.298 0 .597-.06.896-.24l-1.194-1.14 1.432-1.38 1.015 1.02c.239-.9.298-1.8.239-2.76-.06-2.759-.239-3.36-.717-3.899m2.269 11.16-1.194-1.2c-2.03 1.2-4.656.9-6.387-.72-1.373-1.38-1.313-3.06-1.313-5.4 0-2.339-.06-4.08 1.313-5.4a5.206 5.206 0 0 1 7.282 0c1.373 1.38 1.373 3.061 1.373 5.4 0 2.04 0 3.54-.836 4.8l1.134 1.14zM72.11 25.5h-2.627v2.04h2.626zm0-11.58h-2.627v9.9h2.626z" fill="#1E1E1E"/></svg>